# xmcd
#
# Track frame offsets:
#	150
#	16715
#	35090
#	52537
#	72937
#	90420
#	109897
#	127912
#	144760
#	161225
#	183320
#	201650
#	220402
#
# Disc length: 3231 seconds
#
# Revision: 0
# Processed by: cddbd v1.5.1PL0 Copyright (c) Steve Scherf et al.
# Submitted via: dBpowerAMP V4.0
#
DISCID=b00c9d0d
DTITLE=Immature - We Got It
DYEAR=1995
DGENRE=R&B
TTITLE0=We Got It
TTITLE1=Lover's Groove
TTITLE2=Just A Little Bit
TTITLE3=Please Don't Go
TTITLE4=I Don't Know
TTITLE5=Pager
TTITLE6=Crazy
TTITLE7=I Can't Stop the Rain
TTITLE8=A Boy Like Me
TTITLE9=Candy
TTITLE10=When It's Love
TTITLE11=Pay You Back
TTITLE12=Feel The Funk
EXTD=
EXTT0=
EXTT1=
EXTT2=
EXTT3=
EXTT4=
EXTT5=
EXTT6=
EXTT7=
EXTT8=
EXTT9=
EXTT10=
EXTT11=
EXTT12=
PLAYORDER=
